<svg width="21" height="21" viewBox="0 0 21 21" fill="none" xmlns="http://www.w3.org/2000/svg">
<path d="M0.368609 12.5558C0.517237 12.4342 0.698912 12.36 0.890159 12.3427C1.08141 12.3254 1.27344 12.3659 1.44144 12.4589C2.76622 13.1855 4.25245 13.5673 5.76339 13.5692C10.7898 13.5839 14.872 9.49791 14.8867 4.44747C14.8887 3.78866 14.8218 3.14715 14.6923 2.53047C14.652 2.34142 14.6682 2.14468 14.739 1.9648C14.8098 1.78492 14.932 1.62988 15.0903 1.51903C15.255 1.40202 15.4537 1.3427 15.6556 1.35029C15.8574 1.35789 16.0511 1.43199 16.2065 1.56105C17.408 2.54506 18.3747 3.7848 19.0362 5.18989C19.6978 6.59497 20.0374 8.12999 20.0304 9.68302C20.0136 15.446 15.3572 20.1003 9.63701 20.0836C5.33185 20.071 1.64695 17.4175 0.0928949 13.6501C0.0142301 13.4624 -0.00141929 13.2543 0.0482975 13.057C0.0980144 12.8596 0.210413 12.6838 0.368609 12.5558V12.5558ZM1.65573 13.9872C2.42756 15.4363 3.57758 16.6493 4.98357 17.4971C6.38955 18.3449 7.99897 18.7959 9.64076 18.8023C14.666 18.817 18.7481 14.7298 18.7629 9.67931C18.7685 8.4699 18.5342 7.27139 18.0736 6.15314C17.613 5.03489 16.9351 4.01911 16.0793 3.16458C16.1306 3.58603 16.1556 4.01489 16.1543 4.45118C16.1374 10.2142 11.4811 14.8673 5.76089 14.8505C4.30209 14.8463 2.91417 14.5397 1.65573 13.9872V13.9872Z" fill="#FCFCFC"/>
<path d="M3.97335 6.57316C3.91926 6.55508 3.87226 6.52041 3.839 6.47408C3.80575 6.42775 3.78794 6.37212 3.78811 6.3151C3.78828 6.25807 3.80641 6.20254 3.83993 6.15641C3.87346 6.11028 3.92067 6.07589 3.97485 6.05812L5.42882 5.57858C6.07698 5.36421 6.58599 4.85815 6.80414 4.21123L7.29216 2.76003C7.31024 2.70595 7.34491 2.65894 7.39123 2.62568C7.43756 2.59243 7.49319 2.57462 7.55021 2.57479C7.60724 2.57495 7.66276 2.59309 7.70889 2.62661C7.75502 2.66014 7.78941 2.70735 7.80718 2.76154L8.28669 4.21557C8.39216 4.53525 8.57063 4.82597 8.80795 5.0647C9.04528 5.30343 9.33494 5.4836 9.65399 5.59094L11.1051 6.07898C11.1592 6.09706 11.2062 6.13173 11.2395 6.17806C11.2727 6.22439 11.2905 6.28002 11.2904 6.33704C11.2902 6.39407 11.2721 6.4496 11.2385 6.49573C11.205 6.54186 11.1578 6.57625 11.1036 6.59402L9.64965 7.07356C9.32998 7.17903 9.03927 7.35751 8.80055 7.59484C8.56183 7.83218 8.38167 8.12185 8.27433 8.44091L7.78632 9.89211C7.76823 9.9462 7.73356 9.9932 7.68724 10.0265C7.64091 10.0597 7.58529 10.0775 7.52826 10.0774C7.47124 10.0772 7.41571 10.0591 7.36958 10.0255C7.32345 9.992 7.28906 9.94479 7.2713 9.8906L6.79178 8.43657C6.68631 8.11689 6.50784 7.82617 6.27052 7.58744C6.03319 7.34871 5.74353 7.16854 5.42449 7.0612L3.97335 6.57316V6.57316ZM0.173174 2.72545C0.137617 2.71301 0.10682 2.68979 0.0850664 2.65903C0.0633125 2.62828 0.0516821 2.59151 0.0517924 2.55383C0.0519026 2.51616 0.0637479 2.47946 0.0856814 2.44883C0.107615 2.4182 0.138547 2.39516 0.174176 2.38292L1.14266 2.06323C1.57559 1.92073 1.91535 1.58295 2.06037 1.15083L2.38571 0.184198C2.39816 0.14864 2.42137 0.117841 2.45213 0.0960865C2.48288 0.0743317 2.51965 0.062701 2.55733 0.0628113C2.595 0.0629215 2.6317 0.074767 2.66233 0.0967015C2.69296 0.118636 2.71599 0.149569 2.72823 0.1852L3.04791 1.15372C3.11819 1.36709 3.23724 1.56113 3.39562 1.72044C3.55399 1.87975 3.74732 1.99994 3.96026 2.07147L4.92686 2.39683C4.96242 2.40927 4.99321 2.43249 5.01497 2.46325C5.03672 2.494 5.04835 2.53078 5.04824 2.56845C5.04813 2.60612 5.03628 2.64283 5.01435 2.67346C4.99242 2.70409 4.96149 2.72712 4.92586 2.73936L3.95738 3.05905C3.74402 3.12934 3.54999 3.2484 3.39069 3.40678C3.23138 3.56516 3.11119 3.7585 3.03966 3.97145L2.71432 4.93808C2.70188 4.97364 2.67866 5.00444 2.64791 5.02619C2.61715 5.04795 2.58038 5.05958 2.54271 5.05947C2.50504 5.05936 2.46833 5.04751 2.43771 5.02558C2.40708 5.00365 2.38404 4.97271 2.37181 4.93708L2.05213 3.96856C1.90964 3.5356 1.57186 3.19584 1.13977 3.05081L0.174424 2.72546L0.173174 2.72545Z" fill="#FCFCFC"/>
</svg>
