<svg width="720" height="884" viewBox="0 0 720 884" fill="none" xmlns="http://www.w3.org/2000/svg">
<path d="M693.804 682.264L691.574 676.394L688.409 681.818C631.838 778.775 531.012 833.64 401.67 833.64C320.682 833.64 251.469 813.844 196.554 776.911L196.549 776.907C178.286 764.68 161.484 750.401 146.471 734.351L146.468 734.347C86.4309 670.373 53 577.305 53 460.75C53 346.439 87.6216 252.957 148.369 188.079C209.098 123.221 296.187 86.68 401.68 86.68C523.633 86.68 620.459 135.525 679.448 222.366L682.371 226.668L684.632 221.984L708.242 173.074L709.066 171.366L707.877 169.889C629.737 72.8125 511.618 35.4 401.68 35.4C299.63 35.4 198.938 68.4356 123.73 138.244C48.4758 208.095 -1 314.52 -1 460.75C-1 610.88 48.464 717.029 123.751 785.62C198.983 854.162 299.681 884.91 401.68 884.91C514.402 884.91 637.263 845.55 714.709 741.168L715.688 739.849L715.104 738.314L693.804 682.264Z" fill="white" stroke="white" stroke-width="6" stroke-miterlimit="10"/>
<path d="M579.26 567.65C532.172 604.339 474.886 625.563 415.26 628.41C396.07 629.29 335.76 631.22 273.36 599.06C263.275 593.838 253.55 587.948 244.25 581.43C243.44 580.86 242.62 580.3 241.85 579.69C235.71 574.27 229.3 568.15 222.85 561.37L254.27 485.24C269.36 507.37 283.01 519.93 290.09 524.72C293.597 527.047 297.077 529.217 300.53 531.23C337.1 552.53 371.76 556.05 387.74 557.46C446.03 562.65 490.46 543.52 512.47 533.64C537.12 522.58 559.38 506.87 562.07 504.94L562.33 504.76C567.14 501.25 571.89 497.58 576.57 493.7C577.457 518.373 578.353 543.023 579.26 567.65Z" fill="white"/>
<path d="M493.52 302.05L493.44 302.16L448.65 374.67L448.62 374.72L447.94 372.9L447.39 371.45L432.65 332.12L406.75 265.1L406.2 263.7L444.11 192.18L444.6 191.24H444.61L446.07 188.47L446.09 188.45L446.22 188.2L446.34 188.53L448.33 193.22L470.97 246.5L493.52 302.05Z" fill="url(#paint0_linear_12_342)"/>
<path d="M515.67 541.64L447.38 371.49L493.09 301.7L493.12 301.46L509.63 339.08L576.58 493.48L515.67 541.64Z" fill="url(#paint1_linear_12_342)"/>
<path d="M447.44 192.58L447.3 192.85L407.94 262.56L407.75 262.86L406.75 265.23L300.48 531.23L273.34 599.06L181.06 811.13L180.54 812.07C163.37 795.73 148.32 774.74 137.19 752.22L222.84 561.37L254.26 485.24L377.36 187C400.5 184.83 423.05 187.17 444.16 192.16L444.64 191.16C445.56 191.5 446.39 191.83 447.27 192.16L447.44 192.58Z" fill="white"/>
<defs>
<linearGradient id="paint0_linear_12_342" x1="383.5" y1="204.5" x2="478" y2="352" gradientUnits="userSpaceOnUse">
<stop offset="0.16" stop-color="#D4D4D4"/>
<stop offset="0.72" stop-color="white"/>
</linearGradient>
<linearGradient id="paint1_linear_12_342" x1="503" y1="432.5" x2="574.477" y2="430.829" gradientUnits="userSpaceOnUse">
<stop offset="0.21" stop-color="white"/>
<stop offset="0.46" stop-color="#F6F6F6"/>
<stop offset="0.88" stop-color="#DCDCDC"/>
<stop offset="1" stop-color="#D4D4D4"/>
</linearGradient>
</defs>
</svg>
